#N canvas 827 239 527 327 12;
#X obj 16 286 adc~;
#N canvas 0 22 450 278 (subpatch) 0;
#X array array_1_\$0 20 float 2;
#X coords 0 100 20 0 403 95 1 0 0;
#X restore 9 41 graph;
#X obj 65 363 expr $f2 \; $f1;
#X obj 65 510 ctlout;
#X obj 127 510 array set array_1_\$0;
#X obj 387 510 ctlout;
#X obj 449 510 array set array_2_\$0;
#N canvas 0 22 450 278 (subpatch) 0;
#X array array_2_\$0 20 float 2;
#X coords 0 100 20 0 403 98 1 0 0;
#X restore 9 150 graph;
#X obj 371 370 expr $f2 \; $f1;
#X obj 411 421 + 63;
#X obj 16 495 dac~;
#X obj 371 460 expr int($f1*1.27);
#X obj 65 460 expr int($f1*1.27);
#X text 9 8 Multiband Audio Analyzer (Logarithmic Scale) 20 band;
#X obj 371 337 clone Multiband-Audio-Analyzer_cln 20 20;
#X obj 65 337 clone Multiband-Audio-Analyzer_cln 20 20;
#X connect 0 0 10 0;
#X connect 0 0 15 0;
#X connect 0 1 10 1;
#X connect 0 1 14 0;
#X connect 2 0 4 0;
#X connect 2 0 12 0;
#X connect 2 1 3 1;
#X connect 2 1 4 1;
#X connect 8 0 6 0;
#X connect 8 0 11 0;
#X connect 8 1 6 1;
#X connect 8 1 9 0;
#X connect 9 0 5 1;
#X connect 11 0 5 0;
#X connect 12 0 3 0;
#X connect 14 0 8 0;
#X connect 15 0 2 0;
