#N canvas 827 239 527 327 12;
#X obj 60 42 inlet~;
#X obj 60 435 outlet;
#X obj 60 335 env~;
#X obj 184 144 loadbang;
#X obj 157 138 bng 25 250 50 0 empty empty empty 17 7 0 10 #e4e4e4 #4d4d4d #373737;
#X floatatom 157 309 16 0 0 0 - - - 24;
#X obj 107 267 expr 20 * pow(20000 / 20 \, $f1 / ($f2 - 1));
#X obj 333 232 f \$2;
#X obj 157 181 t b b;
#X obj 107 232 f \$1;
#X text 142 230 instance index;
#X text 372 230 instance total;
#X obj 114 96 route q;
#X msg 221 93;
#X obj 60 309 bp~ 200 50;
#X text 392 264 log distribution;
#X connect 0 0 14 0;
#X connect 0 1 12 0;
#X connect 2 0 1 0;
#X connect 3 0 8 0;
#X connect 4 0 8 0;
#X connect 6 0 5 0;
#X connect 6 0 14 1;
#X connect 7 0 6 1;
#X connect 8 0 9 0;
#X connect 8 1 7 0;
#X connect 9 0 6 0;
#X connect 12 0 13 0;
#X connect 12 0 14 2;
#X connect 14 0 2 0;
